<?xml version="1.0" encoding="UTF-8" standalone="no"?>
<svg
   width="353.03998pt"
   height="77.040001pt"
   viewBox="0 0 353.03998 77.040001"
   version="1.1"
   id="svg32"
   xmlns="http://www.w3.org/2000/svg"
   xmlns:svg="http://www.w3.org/2000/svg">
  <defs
     id="defs8">
    <clipPath
       id="clip-0">
      <path
         clip-rule="nonzero"
         d="M 81 0 L 174 0 L 174 75.695313 L 81 75.695313 Z M 81 0 "
         id="path2" />
    </clipPath>
    <clipPath
       id="clip-1">
      <path
         clip-rule="nonzero"
         d="M 216 0 L 309 0 L 309 75.695313 L 216 75.695313 Z M 216 0 "
         id="path5" />
    </clipPath>
  </defs>
  <path
     fill-rule="nonzero"
     fill="rgb(0%, 0%, 0%)"
     fill-opacity="1"
     d="M 141.148438 65.578125 C 140.265625 65.578125 139.523438 65.277344 138.925781 64.679688 C 138.328125 64.082031 138.027344 63.339844 138.027344 62.457031 C 138.027344 61.570313 138.328125 60.828125 138.925781 60.230469 C 139.523438 59.632813 140.265625 59.332031 141.148438 59.332031 L 203.605469 59.332031 C 204.492188 59.332031 205.230469 59.632813 205.832031 60.230469 C 206.429688 60.828125 206.730469 61.570313 206.730469 62.457031 C 206.730469 63.339844 206.429688 64.082031 205.832031 64.679688 C 205.230469 65.277344 204.492188 65.578125 203.605469 65.578125 Z M 147.394531 56.210938 C 145.679688 56.210938 144.207031 55.597656 142.984375 54.375 C 141.761719 53.152344 141.148438 51.683594 141.148438 49.964844 L 141.148438 15.613281 C 141.148438 13.894531 141.761719 12.425781 142.984375 11.203125 C 144.207031 9.980469 145.679688 9.367188 147.394531 9.367188 L 197.359375 9.367188 C 199.078125 9.367188 200.546875 9.980469 201.769531 11.203125 C 202.996094 12.425781 203.605469 13.894531 203.605469 15.613281 L 203.605469 49.964844 C 203.605469 51.683594 202.996094 53.152344 201.769531 54.375 C 200.546875 55.597656 199.078125 56.210938 197.359375 56.210938 Z M 147.394531 49.964844 L 197.359375 49.964844 L 197.359375 15.613281 L 147.394531 15.613281 Z M 147.394531 49.964844 L 147.394531 15.613281 Z M 147.394531 49.964844 "
     id="path10" />
  <path
     fill="none"
     stroke-width="4"
     stroke-linecap="butt"
     stroke-linejoin="miter"
     stroke="rgb(0%, 0%, 0%)"
     stroke-opacity="1"
     stroke-miterlimit="10"
     d="M 99.997864 49.998932 L 168.030393 49.998932 "
     transform="matrix(0.749469, 0, 0, 0.749469, 0, 0)"
     id="path12" />
  <path
     fill-rule="nonzero"
     fill="rgb(0%, 0%, 0%)"
     fill-opacity="1"
     d="M 131.554688 37.472656 L 124.058594 41.222656 L 125.933594 37.472656 L 124.058594 33.726563 Z M 131.554688 37.472656 "
     id="path14" />
  <g
     clip-path="url(#clip-0)"
     id="g18">
    <path
       fill="none"
       stroke-width="4"
       stroke-linecap="butt"
       stroke-linejoin="miter"
       stroke="#000000"
       stroke-opacity="1"
       stroke-miterlimit="10"
       d="m 175.53049,49.998932 -10.00187,5.003541 2.50177,-5.003541 -2.50177,-4.99833 z m 0,0"
       transform="scale(0.749469)"
       id="path16" />
  </g>
  <path
     fill-rule="nonzero"
     fill="rgb(0%, 0%, 0%)"
     fill-opacity="1"
     d="M 37.472656 43.71875 C 34.871094 43.71875 32.660156 42.808594 30.835938 40.988281 C 29.015625 39.164063 28.105469 36.953125 28.105469 34.351563 L 28.105469 15.613281 C 28.105469 13.011719 29.015625 10.800781 30.835938 8.976563 C 32.660156 7.15625 34.871094 6.246094 37.472656 6.246094 C 40.074219 6.246094 42.289063 7.15625 44.109375 8.976563 C 45.929688 10.800781 46.84375 13.011719 46.84375 15.613281 L 46.84375 34.351563 C 46.84375 36.953125 45.929688 39.164063 44.109375 40.988281 C 42.289063 42.808594 40.074219 43.71875 37.472656 43.71875 Z M 37.472656 24.980469 Z M 34.351563 65.578125 L 34.351563 55.976563 C 28.9375 55.246094 24.460938 52.828125 20.921875 48.714844 C 17.382813 44.605469 15.613281 39.816406 15.613281 34.351563 L 21.859375 34.351563 C 21.859375 38.671875 23.382813 42.351563 26.425781 45.398438 C 29.472656 48.441406 33.152344 49.964844 37.472656 49.964844 C 41.792969 49.964844 45.476563 48.441406 48.519531 45.398438 C 51.566406 42.351563 53.085938 38.671875 53.085938 34.351563 L 59.332031 34.351563 C 59.332031 39.816406 57.5625 44.605469 54.023438 48.714844 C 50.484375 52.828125 46.007813 55.246094 40.597656 55.976563 L 40.597656 65.578125 Z M 37.472656 37.472656 C 38.359375 37.472656 39.101563 37.175781 39.699219 36.574219 C 40.296875 35.976563 40.597656 35.234375 40.597656 34.351563 L 40.597656 15.613281 C 40.597656 14.730469 40.296875 13.988281 39.699219 13.390625 C 39.101563 12.789063 38.359375 12.492188 37.472656 12.492188 C 36.589844 12.492188 35.847656 12.789063 35.25 13.390625 C 34.648438 13.988281 34.351563 14.730469 34.351563 15.613281 L 34.351563 34.351563 C 34.351563 35.234375 34.648438 35.976563 35.25 36.574219 C 35.847656 37.175781 36.589844 37.472656 37.472656 37.472656 Z M 37.472656 37.472656 "
     id="path20" />
  <path
     fill-rule="nonzero"
     fill="rgb(0%, 0%, 0%)"
     fill-opacity="1"
     d="M 289.792969 46.84375 C 287.191406 46.84375 284.980469 45.929688 283.160156 44.109375 C 281.335938 42.289063 280.425781 40.074219 280.425781 37.472656 C 280.425781 34.871094 281.335938 32.660156 283.160156 30.835938 C 284.980469 29.015625 287.191406 28.105469 289.792969 28.105469 L 289.792969 21.859375 C 289.792969 20.140625 290.40625 18.671875 291.628906 17.449219 C 292.851563 16.226563 294.324219 15.613281 296.039063 15.613281 L 305.410156 15.613281 C 305.410156 13.011719 306.320313 10.800781 308.140625 8.976563 C 309.960938 7.15625 312.175781 6.246094 314.777344 6.246094 C 317.378906 6.246094 319.589844 7.15625 321.414063 8.976563 C 323.234375 10.800781 324.144531 13.011719 324.144531 15.613281 L 333.515625 15.613281 C 335.230469 15.613281 336.703125 16.226563 337.925781 17.449219 C 339.148438 18.671875 339.757813 20.140625 339.757813 21.859375 L 339.757813 28.105469 C 342.363281 28.105469 344.574219 29.015625 346.394531 30.835938 C 348.21875 32.660156 349.128906 34.871094 349.128906 37.472656 C 349.128906 40.074219 348.21875 42.289063 346.394531 44.109375 C 344.574219 45.929688 342.363281 46.84375 339.757813 46.84375 L 339.757813 59.332031 C 339.757813 61.050781 339.148438 62.519531 337.925781 63.742188 C 336.703125 64.96875 335.230469 65.578125 333.515625 65.578125 L 296.039063 65.578125 C 294.324219 65.578125 292.851563 64.96875 291.628906 63.742188 C 290.40625 62.519531 289.792969 61.050781 289.792969 59.332031 Z M 305.410156 40.597656 C 306.710938 40.597656 307.816406 40.140625 308.726563 39.230469 C 309.636719 38.320313 310.09375 37.214844 310.09375 35.910156 C 310.09375 34.609375 309.636719 33.503906 308.726563 32.59375 C 307.816406 31.683594 306.710938 31.226563 305.410156 31.226563 C 304.109375 31.226563 303 31.683594 302.089844 32.59375 C 301.179688 33.503906 300.722656 34.609375 300.722656 35.910156 C 300.722656 37.214844 301.179688 38.320313 302.089844 39.230469 C 303 40.140625 304.109375 40.597656 305.410156 40.597656 Z M 324.144531 40.597656 C 325.445313 40.597656 326.550781 40.140625 327.464844 39.230469 C 328.375 38.320313 328.828125 37.214844 328.828125 35.910156 C 328.828125 34.609375 328.375 33.503906 327.464844 32.59375 C 326.550781 31.683594 325.445313 31.226563 324.144531 31.226563 C 322.84375 31.226563 321.738281 31.683594 320.828125 32.59375 C 319.917969 33.503906 319.460938 34.609375 319.460938 35.910156 C 319.460938 37.214844 319.917969 38.320313 320.828125 39.230469 C 321.738281 40.140625 322.84375 40.597656 324.144531 40.597656 Z M 302.285156 53.085938 L 327.269531 53.085938 L 327.269531 46.84375 L 302.285156 46.84375 Z M 296.039063 59.332031 L 333.515625 59.332031 L 333.515625 21.859375 L 296.039063 21.859375 Z M 314.777344 40.597656 Z M 314.777344 40.597656 "
     id="path22" />
  <path
     fill="none"
     stroke-width="4"
     stroke-linecap="butt"
     stroke-linejoin="miter"
     stroke="rgb(0%, 0%, 0%)"
     stroke-opacity="1"
     stroke-miterlimit="10"
     d="M 280.000272 49.998932 L 348.02759 49.998932 "
     transform="matrix(0.749469, 0, 0, 0.749469, 0, 0)"
     id="path24" />
  <path
     fill-rule="nonzero"
     fill="rgb(0%, 0%, 0%)"
     fill-opacity="1"
     d="M 266.457031 37.472656 L 258.964844 41.222656 L 260.835938 37.472656 L 258.964844 33.726563 Z M 266.457031 37.472656 "
     id="path26" />
  <g
     clip-path="url(#clip-1)"
     id="g30">
    <path
       fill="none"
       stroke-width="4"
       stroke-linecap="butt"
       stroke-linejoin="miter"
       stroke="#000000"
       stroke-opacity="1"
       stroke-miterlimit="10"
       d="m 355.52769,49.998932 -9.99666,5.003541 2.49656,-5.003541 -2.49656,-4.99833 z m 0,0"
       transform="scale(0.749469)"
       id="path28" />
  </g>
</svg>
